# xmcd
#
# Track frame offsets: 
#        150
#        36292
#        76225
#        111804
#        155385
#        215020
#        251370
#        302337
#        317937
#
# Disc length: 4494 seconds
#
# Revision: 12
# Processed by: cddbd v1.5.2PL0 Copyright (c) Steve Scherf et al.
# Submitted via: ExactAudioCopy v1.0b3
#
DISCID=6d118c09
DTITLE=Frédéric Chopin - Divers dont Rondeaux et Allegro de concert
DYEAR=1996
DGENRE=Romantique
TTITLE0=Introduction et Variations brillantes sur 'Je vends des scapul
TTITLE0=aires' du 'Ludovic' de Hérold en si b M
TTITLE1=Rondo en ut mineur op. 1
TTITLE2=Introduction et Variations sur un air national allemand en mi 
TTITLE2=majeur op. posthume
TTITLE3=Rondeau à la mazure en fa majeur op.5
TTITLE4=Allegro de concert en la majeur op. 46
TTITLE5=Boléro en ut majeur op. 19
TTITLE6=Introduction et Rondeau en mi bémol majeur op. 16
TTITLE7=Tarantelle en la bémol majeur op. 43
TTITLE8='Souvenir de Paganini' en la majeur KK IVa n° 10 op. posthume
EXTD=Frank van de Laar_piano
EXTT0=
EXTT1=
EXTT2=
EXTT3=
EXTT4=
EXTT5=
EXTT6=
EXTT7=
EXTT8=
PLAYORDER=
